<svg version="1.1" xmlns="http://www.w3.org/2000/svg" xmlns:xlink="http://www.w3.org/1999/xlink" width="512.000000pt" height="512.000000pt" viewBox="0,0,256,256"><g fill="#63ff00" fill-rule="nonzero" stroke="none" stroke-width="1" stroke-linecap="butt" stroke-linejoin="miter" stroke-miterlimit="10" stroke-dasharray="" stroke-dashoffset="0" font-family="none" font-weight="none" font-size="none" text-anchor="none" style="mix-blend-mode: normal"><g transform="translate(0.125,-0.125) scale(0.5,0.5)"><g transform="translate(0,512) scale(0.1,-0.1)"><path d="M1275,3840l-1280,-1280l1282,-1282l1283,-1283l220,220c121,121 220,224 220,230c0,5 -402,412 -892,902l-893,893h1953h1952v320v320h-1952h-1953l893,893c490,490 892,897 892,902c0,10 -430,445 -440,445c-3,0 -581,-576 -1285,-1280z"></path></g></g></g></svg>